<mxfile host="app.diagrams.net" modified="2021-08-24T05:00:08.953Z" agent="5.0 (Macintosh; Intel Mac OS X 10_15_7) AppleWebKit/605.1.15 (KHTML, like Gecko) Version/14.1.2 Safari/605.1.15" etag="e8H2fsUZAidPBafmGR_E" version="14.9.8" type="github">
  <diagram id="C5RBs43oDa-KdzZeNtuy" name="Page-1">
    <mxGraphModel dx="1188" dy="688" grid="1" gridSize="10" guides="1" tooltips="1" connect="1" arrows="1" fold="1" page="1" pageScale="1" pageWidth="2336" pageHeight="1654" background="none" math="0" shadow="0">
      <root>
        <mxCell id="WIyWlLk6GJQsqaUBKTNV-0" />
        <mxCell id="WIyWlLk6GJQsqaUBKTNV-1" parent="WIyWlLk6GJQsqaUBKTNV-0" />
        <mxCell id="XLvopbLPkMRgBaN1qyR0-2" value="" style="edgeStyle=orthogonalEdgeStyle;rounded=0;orthogonalLoop=1;jettySize=auto;html=1;entryX=0.002;entryY=0.386;entryDx=0;entryDy=0;entryPerimeter=0;endArrow=none;endFill=0;" edge="1" parent="WIyWlLk6GJQsqaUBKTNV-1" source="WIyWlLk6GJQsqaUBKTNV-3" target="XLvopbLPkMRgBaN1qyR0-22">
          <mxGeometry relative="1" as="geometry">
            <mxPoint x="730" y="577.5" as="targetPoint" />
          </mxGeometry>
        </mxCell>
        <mxCell id="XLvopbLPkMRgBaN1qyR0-95" style="edgeStyle=orthogonalEdgeStyle;rounded=0;orthogonalLoop=1;jettySize=auto;html=1;exitX=1;exitY=0.25;exitDx=0;exitDy=0;startArrow=none;startFill=0;endArrow=none;endFill=0;strokeColor=#000000;" edge="1" parent="WIyWlLk6GJQsqaUBKTNV-1" source="WIyWlLk6GJQsqaUBKTNV-3">
          <mxGeometry relative="1" as="geometry">
            <mxPoint x="758" y="527.5" as="targetPoint" />
            <Array as="points">
              <mxPoint x="758" y="569.5" />
              <mxPoint x="758" y="487.5" />
            </Array>
          </mxGeometry>
        </mxCell>
        <mxCell id="WIyWlLk6GJQsqaUBKTNV-3" value="Customer" style="rounded=0;whiteSpace=wrap;html=1;fontSize=12;glass=0;strokeWidth=1;shadow=0;" parent="WIyWlLk6GJQsqaUBKTNV-1" vertex="1">
          <mxGeometry x="570" y="562.5" width="80" height="30" as="geometry" />
        </mxCell>
        <mxCell id="XLvopbLPkMRgBaN1qyR0-1" style="edgeStyle=orthogonalEdgeStyle;rounded=0;orthogonalLoop=1;jettySize=auto;html=1;exitX=1;exitY=0.5;exitDx=0;exitDy=0;endArrow=none;endFill=0;" edge="1" parent="WIyWlLk6GJQsqaUBKTNV-1" source="WIyWlLk6GJQsqaUBKTNV-6" target="WIyWlLk6GJQsqaUBKTNV-7">
          <mxGeometry relative="1" as="geometry" />
        </mxCell>
        <mxCell id="WIyWlLk6GJQsqaUBKTNV-6" value="registers" style="rhombus;whiteSpace=wrap;html=1;shadow=0;fontFamily=Helvetica;fontSize=12;align=center;strokeWidth=1;spacing=6;spacingTop=-4;" parent="WIyWlLk6GJQsqaUBKTNV-1" vertex="1">
          <mxGeometry x="860" y="640" width="70" height="65" as="geometry" />
        </mxCell>
        <mxCell id="WIyWlLk6GJQsqaUBKTNV-7" value="E-Commerce Portal" style="rounded=0;whiteSpace=wrap;html=1;fontSize=12;glass=0;strokeWidth=1;shadow=0;" parent="WIyWlLk6GJQsqaUBKTNV-1" vertex="1">
          <mxGeometry x="973.27" y="657.5" width="90" height="30" as="geometry" />
        </mxCell>
        <mxCell id="XLvopbLPkMRgBaN1qyR0-3" value="id" style="ellipse;whiteSpace=wrap;html=1;" vertex="1" parent="WIyWlLk6GJQsqaUBKTNV-1">
          <mxGeometry x="560" y="512.5" width="60" height="30" as="geometry" />
        </mxCell>
        <mxCell id="XLvopbLPkMRgBaN1qyR0-4" value="Name" style="ellipse;whiteSpace=wrap;html=1;" vertex="1" parent="WIyWlLk6GJQsqaUBKTNV-1">
          <mxGeometry x="500" y="527.5" width="60" height="30" as="geometry" />
        </mxCell>
        <mxCell id="XLvopbLPkMRgBaN1qyR0-6" value="Email" style="ellipse;whiteSpace=wrap;html=1;" vertex="1" parent="WIyWlLk6GJQsqaUBKTNV-1">
          <mxGeometry x="620" y="527.5" width="60" height="30" as="geometry" />
        </mxCell>
        <mxCell id="XLvopbLPkMRgBaN1qyR0-7" value="Address" style="ellipse;whiteSpace=wrap;html=1;" vertex="1" parent="WIyWlLk6GJQsqaUBKTNV-1">
          <mxGeometry x="500" y="597.5" width="60" height="30" as="geometry" />
        </mxCell>
        <mxCell id="XLvopbLPkMRgBaN1qyR0-10" value="Username" style="ellipse;whiteSpace=wrap;html=1;" vertex="1" parent="WIyWlLk6GJQsqaUBKTNV-1">
          <mxGeometry x="540" y="627.5" width="60" height="30" as="geometry" />
        </mxCell>
        <mxCell id="XLvopbLPkMRgBaN1qyR0-11" value="Password" style="ellipse;whiteSpace=wrap;html=1;" vertex="1" parent="WIyWlLk6GJQsqaUBKTNV-1">
          <mxGeometry x="590" y="607.5" width="60" height="30" as="geometry" />
        </mxCell>
        <mxCell id="XLvopbLPkMRgBaN1qyR0-14" value="" style="endArrow=none;html=1;entryX=0.5;entryY=1;entryDx=0;entryDy=0;exitX=0.25;exitY=0;exitDx=0;exitDy=0;" edge="1" parent="WIyWlLk6GJQsqaUBKTNV-1" source="WIyWlLk6GJQsqaUBKTNV-3" target="XLvopbLPkMRgBaN1qyR0-3">
          <mxGeometry width="50" height="50" relative="1" as="geometry">
            <mxPoint x="600" y="557.5" as="sourcePoint" />
            <mxPoint x="710" y="587.5" as="targetPoint" />
          </mxGeometry>
        </mxCell>
        <mxCell id="XLvopbLPkMRgBaN1qyR0-15" value="" style="endArrow=none;html=1;entryX=1;entryY=1;entryDx=0;entryDy=0;exitX=0;exitY=0.25;exitDx=0;exitDy=0;" edge="1" parent="WIyWlLk6GJQsqaUBKTNV-1" source="WIyWlLk6GJQsqaUBKTNV-3" target="XLvopbLPkMRgBaN1qyR0-4">
          <mxGeometry width="50" height="50" relative="1" as="geometry">
            <mxPoint x="567" y="567.5" as="sourcePoint" />
            <mxPoint x="560" y="551.51" as="targetPoint" />
          </mxGeometry>
        </mxCell>
        <mxCell id="XLvopbLPkMRgBaN1qyR0-16" value="" style="endArrow=none;html=1;entryX=0;entryY=1;entryDx=0;entryDy=0;exitX=0.75;exitY=0;exitDx=0;exitDy=0;" edge="1" parent="WIyWlLk6GJQsqaUBKTNV-1" source="WIyWlLk6GJQsqaUBKTNV-3" target="XLvopbLPkMRgBaN1qyR0-6">
          <mxGeometry width="50" height="50" relative="1" as="geometry">
            <mxPoint x="620" y="577.5" as="sourcePoint" />
            <mxPoint x="612.64" y="561.51" as="targetPoint" />
          </mxGeometry>
        </mxCell>
        <mxCell id="XLvopbLPkMRgBaN1qyR0-17" value="" style="endArrow=none;html=1;entryX=1;entryY=0;entryDx=0;entryDy=0;exitX=0;exitY=0.75;exitDx=0;exitDy=0;" edge="1" parent="WIyWlLk6GJQsqaUBKTNV-1" source="WIyWlLk6GJQsqaUBKTNV-3" target="XLvopbLPkMRgBaN1qyR0-7">
          <mxGeometry width="50" height="50" relative="1" as="geometry">
            <mxPoint x="573" y="606.5" as="sourcePoint" />
            <mxPoint x="622.64" y="571.51" as="targetPoint" />
          </mxGeometry>
        </mxCell>
        <mxCell id="XLvopbLPkMRgBaN1qyR0-18" value="" style="endArrow=none;html=1;entryX=0.5;entryY=0;entryDx=0;entryDy=0;exitX=0.25;exitY=1;exitDx=0;exitDy=0;" edge="1" parent="WIyWlLk6GJQsqaUBKTNV-1" source="WIyWlLk6GJQsqaUBKTNV-3" target="XLvopbLPkMRgBaN1qyR0-10">
          <mxGeometry width="50" height="50" relative="1" as="geometry">
            <mxPoint x="640" y="597.5" as="sourcePoint" />
            <mxPoint x="632.64" y="581.51" as="targetPoint" />
          </mxGeometry>
        </mxCell>
        <mxCell id="XLvopbLPkMRgBaN1qyR0-19" value="" style="endArrow=none;html=1;entryX=0.5;entryY=1;entryDx=0;entryDy=0;exitX=0.5;exitY=0;exitDx=0;exitDy=0;" edge="1" parent="WIyWlLk6GJQsqaUBKTNV-1" source="XLvopbLPkMRgBaN1qyR0-11" target="WIyWlLk6GJQsqaUBKTNV-3">
          <mxGeometry width="50" height="50" relative="1" as="geometry">
            <mxPoint x="650" y="607.5" as="sourcePoint" />
            <mxPoint x="642.64" y="591.51" as="targetPoint" />
          </mxGeometry>
        </mxCell>
        <mxCell id="XLvopbLPkMRgBaN1qyR0-23" style="edgeStyle=orthogonalEdgeStyle;rounded=0;orthogonalLoop=1;jettySize=auto;html=1;entryX=0;entryY=0.5;entryDx=0;entryDy=0;shape=link;" edge="1" parent="WIyWlLk6GJQsqaUBKTNV-1" source="XLvopbLPkMRgBaN1qyR0-22" target="WIyWlLk6GJQsqaUBKTNV-6">
          <mxGeometry relative="1" as="geometry" />
        </mxCell>
        <mxCell id="XLvopbLPkMRgBaN1qyR0-97" style="edgeStyle=orthogonalEdgeStyle;rounded=0;orthogonalLoop=1;jettySize=auto;html=1;entryX=0.5;entryY=1;entryDx=0;entryDy=0;startArrow=none;startFill=0;endArrow=none;endFill=0;strokeColor=#000000;" edge="1" parent="WIyWlLk6GJQsqaUBKTNV-1" source="XLvopbLPkMRgBaN1qyR0-22" target="XLvopbLPkMRgBaN1qyR0-94">
          <mxGeometry relative="1" as="geometry" />
        </mxCell>
        <mxCell id="XLvopbLPkMRgBaN1qyR0-22" value="User" style="rounded=0;whiteSpace=wrap;html=1;fontSize=12;glass=0;strokeWidth=1;shadow=0;" vertex="1" parent="WIyWlLk6GJQsqaUBKTNV-1">
          <mxGeometry x="730" y="657.5" width="80" height="30" as="geometry" />
        </mxCell>
        <mxCell id="XLvopbLPkMRgBaN1qyR0-37" style="edgeStyle=orthogonalEdgeStyle;rounded=0;orthogonalLoop=1;jettySize=auto;html=1;exitX=1;exitY=0.5;exitDx=0;exitDy=0;entryX=0;entryY=0.75;entryDx=0;entryDy=0;endArrow=none;endFill=0;" edge="1" parent="WIyWlLk6GJQsqaUBKTNV-1" source="XLvopbLPkMRgBaN1qyR0-24" target="XLvopbLPkMRgBaN1qyR0-22">
          <mxGeometry relative="1" as="geometry" />
        </mxCell>
        <mxCell id="XLvopbLPkMRgBaN1qyR0-24" value="Seller" style="rounded=0;whiteSpace=wrap;html=1;fontSize=12;glass=0;strokeWidth=1;shadow=0;" vertex="1" parent="WIyWlLk6GJQsqaUBKTNV-1">
          <mxGeometry x="570" y="767.5" width="80" height="30" as="geometry" />
        </mxCell>
        <mxCell id="XLvopbLPkMRgBaN1qyR0-25" value="id" style="ellipse;whiteSpace=wrap;html=1;" vertex="1" parent="WIyWlLk6GJQsqaUBKTNV-1">
          <mxGeometry x="560" y="717.5" width="60" height="30" as="geometry" />
        </mxCell>
        <mxCell id="XLvopbLPkMRgBaN1qyR0-26" value="Name" style="ellipse;whiteSpace=wrap;html=1;" vertex="1" parent="WIyWlLk6GJQsqaUBKTNV-1">
          <mxGeometry x="500" y="732.5" width="60" height="30" as="geometry" />
        </mxCell>
        <mxCell id="XLvopbLPkMRgBaN1qyR0-27" value="Email" style="ellipse;whiteSpace=wrap;html=1;" vertex="1" parent="WIyWlLk6GJQsqaUBKTNV-1">
          <mxGeometry x="500" y="767.5" width="60" height="30" as="geometry" />
        </mxCell>
        <mxCell id="XLvopbLPkMRgBaN1qyR0-28" value="Location" style="ellipse;whiteSpace=wrap;html=1;" vertex="1" parent="WIyWlLk6GJQsqaUBKTNV-1">
          <mxGeometry x="500" y="802.5" width="60" height="30" as="geometry" />
        </mxCell>
        <mxCell id="XLvopbLPkMRgBaN1qyR0-29" value="Username" style="ellipse;whiteSpace=wrap;html=1;" vertex="1" parent="WIyWlLk6GJQsqaUBKTNV-1">
          <mxGeometry x="540" y="832.5" width="60" height="30" as="geometry" />
        </mxCell>
        <mxCell id="XLvopbLPkMRgBaN1qyR0-30" value="Password" style="ellipse;whiteSpace=wrap;html=1;" vertex="1" parent="WIyWlLk6GJQsqaUBKTNV-1">
          <mxGeometry x="590" y="812.5" width="60" height="30" as="geometry" />
        </mxCell>
        <mxCell id="XLvopbLPkMRgBaN1qyR0-31" value="" style="endArrow=none;html=1;entryX=0.5;entryY=1;entryDx=0;entryDy=0;exitX=0.25;exitY=0;exitDx=0;exitDy=0;" edge="1" parent="WIyWlLk6GJQsqaUBKTNV-1" source="XLvopbLPkMRgBaN1qyR0-24" target="XLvopbLPkMRgBaN1qyR0-25">
          <mxGeometry width="50" height="50" relative="1" as="geometry">
            <mxPoint x="600" y="762.5" as="sourcePoint" />
            <mxPoint x="710" y="792.5" as="targetPoint" />
          </mxGeometry>
        </mxCell>
        <mxCell id="XLvopbLPkMRgBaN1qyR0-32" value="" style="endArrow=none;html=1;entryX=1;entryY=1;entryDx=0;entryDy=0;exitX=0;exitY=0.25;exitDx=0;exitDy=0;" edge="1" parent="WIyWlLk6GJQsqaUBKTNV-1" source="XLvopbLPkMRgBaN1qyR0-24" target="XLvopbLPkMRgBaN1qyR0-26">
          <mxGeometry width="50" height="50" relative="1" as="geometry">
            <mxPoint x="567" y="772.5" as="sourcePoint" />
            <mxPoint x="560" y="756.51" as="targetPoint" />
          </mxGeometry>
        </mxCell>
        <mxCell id="XLvopbLPkMRgBaN1qyR0-33" value="" style="endArrow=none;html=1;entryX=1;entryY=0.5;entryDx=0;entryDy=0;exitX=0;exitY=0.5;exitDx=0;exitDy=0;" edge="1" parent="WIyWlLk6GJQsqaUBKTNV-1" source="XLvopbLPkMRgBaN1qyR0-24" target="XLvopbLPkMRgBaN1qyR0-27">
          <mxGeometry width="50" height="50" relative="1" as="geometry">
            <mxPoint x="620" y="782.5" as="sourcePoint" />
            <mxPoint x="612.64" y="766.51" as="targetPoint" />
          </mxGeometry>
        </mxCell>
        <mxCell id="XLvopbLPkMRgBaN1qyR0-34" value="" style="endArrow=none;html=1;entryX=1;entryY=0;entryDx=0;entryDy=0;exitX=0;exitY=0.75;exitDx=0;exitDy=0;" edge="1" parent="WIyWlLk6GJQsqaUBKTNV-1" source="XLvopbLPkMRgBaN1qyR0-24" target="XLvopbLPkMRgBaN1qyR0-28">
          <mxGeometry width="50" height="50" relative="1" as="geometry">
            <mxPoint x="573" y="811.5" as="sourcePoint" />
            <mxPoint x="622.64" y="776.51" as="targetPoint" />
          </mxGeometry>
        </mxCell>
        <mxCell id="XLvopbLPkMRgBaN1qyR0-35" value="" style="endArrow=none;html=1;entryX=0.5;entryY=0;entryDx=0;entryDy=0;exitX=0.25;exitY=1;exitDx=0;exitDy=0;" edge="1" parent="WIyWlLk6GJQsqaUBKTNV-1" source="XLvopbLPkMRgBaN1qyR0-24" target="XLvopbLPkMRgBaN1qyR0-29">
          <mxGeometry width="50" height="50" relative="1" as="geometry">
            <mxPoint x="640" y="802.5" as="sourcePoint" />
            <mxPoint x="632.64" y="786.51" as="targetPoint" />
          </mxGeometry>
        </mxCell>
        <mxCell id="XLvopbLPkMRgBaN1qyR0-36" value="" style="endArrow=none;html=1;entryX=0.5;entryY=1;entryDx=0;entryDy=0;exitX=0.5;exitY=0;exitDx=0;exitDy=0;" edge="1" parent="WIyWlLk6GJQsqaUBKTNV-1" source="XLvopbLPkMRgBaN1qyR0-30" target="XLvopbLPkMRgBaN1qyR0-24">
          <mxGeometry width="50" height="50" relative="1" as="geometry">
            <mxPoint x="650" y="812.5" as="sourcePoint" />
            <mxPoint x="642.64" y="796.51" as="targetPoint" />
          </mxGeometry>
        </mxCell>
        <mxCell id="XLvopbLPkMRgBaN1qyR0-41" style="edgeStyle=orthogonalEdgeStyle;rounded=0;orthogonalLoop=1;jettySize=auto;html=1;entryX=0;entryY=0.5;entryDx=0;entryDy=0;endArrow=none;endFill=0;" edge="1" parent="WIyWlLk6GJQsqaUBKTNV-1" source="XLvopbLPkMRgBaN1qyR0-39" target="WIyWlLk6GJQsqaUBKTNV-3">
          <mxGeometry relative="1" as="geometry" />
        </mxCell>
        <mxCell id="XLvopbLPkMRgBaN1qyR0-39" value="Normal" style="rounded=0;whiteSpace=wrap;html=1;fontSize=12;glass=0;strokeWidth=1;shadow=0;" vertex="1" parent="WIyWlLk6GJQsqaUBKTNV-1">
          <mxGeometry x="300" y="537.5" width="70" height="20" as="geometry" />
        </mxCell>
        <mxCell id="XLvopbLPkMRgBaN1qyR0-43" style="edgeStyle=orthogonalEdgeStyle;rounded=0;orthogonalLoop=1;jettySize=auto;html=1;entryX=0;entryY=0.5;entryDx=0;entryDy=0;startArrow=none;startFill=0;endArrow=none;endFill=0;" edge="1" parent="WIyWlLk6GJQsqaUBKTNV-1" source="XLvopbLPkMRgBaN1qyR0-40" target="WIyWlLk6GJQsqaUBKTNV-3">
          <mxGeometry relative="1" as="geometry" />
        </mxCell>
        <mxCell id="XLvopbLPkMRgBaN1qyR0-40" value="Premium" style="rounded=0;whiteSpace=wrap;html=1;fontSize=12;glass=0;strokeWidth=1;shadow=0;" vertex="1" parent="WIyWlLk6GJQsqaUBKTNV-1">
          <mxGeometry x="300" y="597.5" width="70" height="20" as="geometry" />
        </mxCell>
        <mxCell id="XLvopbLPkMRgBaN1qyR0-75" style="edgeStyle=orthogonalEdgeStyle;rounded=0;orthogonalLoop=1;jettySize=auto;html=1;exitX=1;exitY=1;exitDx=0;exitDy=0;entryX=0;entryY=0.5;entryDx=0;entryDy=0;startArrow=none;startFill=0;endArrow=none;endFill=0;strokeColor=#000000;shape=link;" edge="1" parent="WIyWlLk6GJQsqaUBKTNV-1" source="XLvopbLPkMRgBaN1qyR0-99" target="XLvopbLPkMRgBaN1qyR0-73">
          <mxGeometry relative="1" as="geometry">
            <mxPoint x="1050" y="452.5" as="sourcePoint" />
          </mxGeometry>
        </mxCell>
        <mxCell id="XLvopbLPkMRgBaN1qyR0-76" style="edgeStyle=orthogonalEdgeStyle;rounded=0;orthogonalLoop=1;jettySize=auto;html=1;exitX=1;exitY=0.5;exitDx=0;exitDy=0;entryX=0;entryY=0.5;entryDx=0;entryDy=0;startArrow=none;startFill=0;endArrow=none;endFill=0;strokeColor=#000000;shape=link;" edge="1" parent="WIyWlLk6GJQsqaUBKTNV-1" source="XLvopbLPkMRgBaN1qyR0-99" target="XLvopbLPkMRgBaN1qyR0-72">
          <mxGeometry relative="1" as="geometry">
            <mxPoint x="1050" y="445" as="sourcePoint" />
          </mxGeometry>
        </mxCell>
        <mxCell id="XLvopbLPkMRgBaN1qyR0-103" style="edgeStyle=orthogonalEdgeStyle;rounded=0;orthogonalLoop=1;jettySize=auto;html=1;entryX=0;entryY=0.5;entryDx=0;entryDy=0;startArrow=none;startFill=0;endArrow=none;endFill=0;strokeColor=#000000;" edge="1" parent="WIyWlLk6GJQsqaUBKTNV-1" source="XLvopbLPkMRgBaN1qyR0-50" target="XLvopbLPkMRgBaN1qyR0-99">
          <mxGeometry relative="1" as="geometry" />
        </mxCell>
        <mxCell id="XLvopbLPkMRgBaN1qyR0-153" style="edgeStyle=orthogonalEdgeStyle;rounded=0;orthogonalLoop=1;jettySize=auto;html=1;exitX=0.75;exitY=1;exitDx=0;exitDy=0;entryX=0;entryY=0.5;entryDx=0;entryDy=0;startArrow=none;startFill=0;endArrow=none;endFill=0;strokeColor=#000000;" edge="1" parent="WIyWlLk6GJQsqaUBKTNV-1" source="XLvopbLPkMRgBaN1qyR0-50" target="XLvopbLPkMRgBaN1qyR0-151">
          <mxGeometry relative="1" as="geometry">
            <Array as="points">
              <mxPoint x="935" y="467.5" />
              <mxPoint x="980" y="467.5" />
              <mxPoint x="980" y="535.5" />
            </Array>
          </mxGeometry>
        </mxCell>
        <mxCell id="XLvopbLPkMRgBaN1qyR0-50" value="Products" style="rounded=0;whiteSpace=wrap;html=1;fontSize=12;glass=0;strokeWidth=1;shadow=0;" vertex="1" parent="WIyWlLk6GJQsqaUBKTNV-1">
          <mxGeometry x="875" y="427.5" width="80" height="30" as="geometry" />
        </mxCell>
        <mxCell id="XLvopbLPkMRgBaN1qyR0-51" value="Cart" style="rounded=0;whiteSpace=wrap;html=1;fontSize=12;glass=0;strokeWidth=1;shadow=0;" vertex="1" parent="WIyWlLk6GJQsqaUBKTNV-1">
          <mxGeometry x="1160" y="607.5" width="80" height="30" as="geometry" />
        </mxCell>
        <mxCell id="XLvopbLPkMRgBaN1qyR0-54" value="id" style="ellipse;whiteSpace=wrap;html=1;" vertex="1" parent="WIyWlLk6GJQsqaUBKTNV-1">
          <mxGeometry x="810" y="402.5" width="60" height="20" as="geometry" />
        </mxCell>
        <mxCell id="XLvopbLPkMRgBaN1qyR0-55" value="" style="endArrow=none;html=1;entryX=1;entryY=1;entryDx=0;entryDy=0;exitX=0;exitY=0;exitDx=0;exitDy=0;" edge="1" parent="WIyWlLk6GJQsqaUBKTNV-1" target="XLvopbLPkMRgBaN1qyR0-54" source="XLvopbLPkMRgBaN1qyR0-50">
          <mxGeometry width="50" height="50" relative="1" as="geometry">
            <mxPoint x="900" y="427.5" as="sourcePoint" />
            <mxPoint x="1020" y="452.5" as="targetPoint" />
          </mxGeometry>
        </mxCell>
        <mxCell id="XLvopbLPkMRgBaN1qyR0-59" value="" style="endArrow=none;html=1;entryX=0.25;entryY=0;entryDx=0;entryDy=0;exitX=0.5;exitY=1;exitDx=0;exitDy=0;" edge="1" parent="WIyWlLk6GJQsqaUBKTNV-1" source="XLvopbLPkMRgBaN1qyR0-60" target="XLvopbLPkMRgBaN1qyR0-50">
          <mxGeometry width="50" height="50" relative="1" as="geometry">
            <mxPoint x="860" y="472.5" as="sourcePoint" />
            <mxPoint x="910" y="417.5" as="targetPoint" />
          </mxGeometry>
        </mxCell>
        <mxCell id="XLvopbLPkMRgBaN1qyR0-60" value="Name" style="ellipse;whiteSpace=wrap;html=1;" vertex="1" parent="WIyWlLk6GJQsqaUBKTNV-1">
          <mxGeometry x="840" y="377.5" width="60" height="20" as="geometry" />
        </mxCell>
        <mxCell id="XLvopbLPkMRgBaN1qyR0-61" value="Cost" style="ellipse;whiteSpace=wrap;html=1;" vertex="1" parent="WIyWlLk6GJQsqaUBKTNV-1">
          <mxGeometry x="895" y="362.5" width="60" height="20" as="geometry" />
        </mxCell>
        <mxCell id="XLvopbLPkMRgBaN1qyR0-62" value="" style="endArrow=none;html=1;exitX=0.5;exitY=1;exitDx=0;exitDy=0;entryX=0.5;entryY=0;entryDx=0;entryDy=0;" edge="1" parent="WIyWlLk6GJQsqaUBKTNV-1" source="XLvopbLPkMRgBaN1qyR0-61" target="XLvopbLPkMRgBaN1qyR0-50">
          <mxGeometry width="50" height="50" relative="1" as="geometry">
            <mxPoint x="910" y="437.5" as="sourcePoint" />
            <mxPoint x="880" y="417.5" as="targetPoint" />
          </mxGeometry>
        </mxCell>
        <mxCell id="XLvopbLPkMRgBaN1qyR0-63" value="Desc" style="ellipse;whiteSpace=wrap;html=1;" vertex="1" parent="WIyWlLk6GJQsqaUBKTNV-1">
          <mxGeometry x="940" y="382.5" width="60" height="20" as="geometry" />
        </mxCell>
        <mxCell id="XLvopbLPkMRgBaN1qyR0-64" value="" style="endArrow=none;html=1;entryX=0.5;entryY=1;entryDx=0;entryDy=0;exitX=0.75;exitY=0;exitDx=0;exitDy=0;" edge="1" parent="WIyWlLk6GJQsqaUBKTNV-1" source="XLvopbLPkMRgBaN1qyR0-50" target="XLvopbLPkMRgBaN1qyR0-63">
          <mxGeometry width="50" height="50" relative="1" as="geometry">
            <mxPoint x="920" y="427.5" as="sourcePoint" />
            <mxPoint x="880" y="417.5" as="targetPoint" />
          </mxGeometry>
        </mxCell>
        <mxCell id="XLvopbLPkMRgBaN1qyR0-67" style="edgeStyle=orthogonalEdgeStyle;rounded=0;orthogonalLoop=1;jettySize=auto;html=1;entryX=0.5;entryY=0;entryDx=0;entryDy=0;endArrow=none;endFill=0;exitX=0.5;exitY=1;exitDx=0;exitDy=0;" edge="1" parent="WIyWlLk6GJQsqaUBKTNV-1" source="XLvopbLPkMRgBaN1qyR0-99" target="WIyWlLk6GJQsqaUBKTNV-7">
          <mxGeometry relative="1" as="geometry">
            <mxPoint x="943.208459863946" y="522.5571428571428" as="sourcePoint" />
          </mxGeometry>
        </mxCell>
        <mxCell id="XLvopbLPkMRgBaN1qyR0-102" style="edgeStyle=orthogonalEdgeStyle;rounded=0;orthogonalLoop=1;jettySize=auto;html=1;entryX=1;entryY=0;entryDx=0;entryDy=0;startArrow=none;startFill=0;endArrow=none;endFill=0;strokeColor=#000000;shape=link;" edge="1" parent="WIyWlLk6GJQsqaUBKTNV-1" source="XLvopbLPkMRgBaN1qyR0-71" target="XLvopbLPkMRgBaN1qyR0-99">
          <mxGeometry relative="1" as="geometry">
            <Array as="points">
              <mxPoint x="1106" y="399.5" />
              <mxPoint x="1106" y="429.5" />
            </Array>
          </mxGeometry>
        </mxCell>
        <mxCell id="XLvopbLPkMRgBaN1qyR0-108" style="edgeStyle=orthogonalEdgeStyle;rounded=0;orthogonalLoop=1;jettySize=auto;html=1;entryX=0;entryY=0.5;entryDx=0;entryDy=0;startArrow=none;startFill=0;endArrow=none;endFill=0;strokeColor=#000000;" edge="1" parent="WIyWlLk6GJQsqaUBKTNV-1" source="XLvopbLPkMRgBaN1qyR0-71" target="XLvopbLPkMRgBaN1qyR0-105">
          <mxGeometry relative="1" as="geometry" />
        </mxCell>
        <mxCell id="XLvopbLPkMRgBaN1qyR0-110" style="edgeStyle=orthogonalEdgeStyle;rounded=0;orthogonalLoop=1;jettySize=auto;html=1;exitX=1;exitY=0.5;exitDx=0;exitDy=0;entryX=0;entryY=0.5;entryDx=0;entryDy=0;startArrow=none;startFill=0;endArrow=none;endFill=0;strokeColor=#000000;" edge="1" parent="WIyWlLk6GJQsqaUBKTNV-1" source="XLvopbLPkMRgBaN1qyR0-71" target="XLvopbLPkMRgBaN1qyR0-109">
          <mxGeometry relative="1" as="geometry" />
        </mxCell>
        <mxCell id="XLvopbLPkMRgBaN1qyR0-112" style="edgeStyle=orthogonalEdgeStyle;rounded=0;orthogonalLoop=1;jettySize=auto;html=1;exitX=1;exitY=0.5;exitDx=0;exitDy=0;entryX=0;entryY=0.5;entryDx=0;entryDy=0;startArrow=none;startFill=0;endArrow=none;endFill=0;strokeColor=#000000;" edge="1" parent="WIyWlLk6GJQsqaUBKTNV-1" source="XLvopbLPkMRgBaN1qyR0-71" target="XLvopbLPkMRgBaN1qyR0-111">
          <mxGeometry relative="1" as="geometry" />
        </mxCell>
        <mxCell id="XLvopbLPkMRgBaN1qyR0-114" style="edgeStyle=orthogonalEdgeStyle;rounded=0;orthogonalLoop=1;jettySize=auto;html=1;exitX=1;exitY=0.5;exitDx=0;exitDy=0;entryX=0;entryY=0.5;entryDx=0;entryDy=0;startArrow=none;startFill=0;endArrow=none;endFill=0;strokeColor=#000000;" edge="1" parent="WIyWlLk6GJQsqaUBKTNV-1" source="XLvopbLPkMRgBaN1qyR0-71" target="XLvopbLPkMRgBaN1qyR0-113">
          <mxGeometry relative="1" as="geometry" />
        </mxCell>
        <mxCell id="XLvopbLPkMRgBaN1qyR0-71" value="Category" style="rounded=0;whiteSpace=wrap;html=1;fontSize=12;glass=0;strokeWidth=1;shadow=0;" vertex="1" parent="WIyWlLk6GJQsqaUBKTNV-1">
          <mxGeometry x="1165" y="385" width="80" height="30" as="geometry" />
        </mxCell>
        <mxCell id="XLvopbLPkMRgBaN1qyR0-72" value="Brand" style="rounded=0;whiteSpace=wrap;html=1;fontSize=12;glass=0;strokeWidth=1;shadow=0;" vertex="1" parent="WIyWlLk6GJQsqaUBKTNV-1">
          <mxGeometry x="1165" y="427.5" width="80" height="30" as="geometry" />
        </mxCell>
        <mxCell id="XLvopbLPkMRgBaN1qyR0-73" value="Segment" style="rounded=0;whiteSpace=wrap;html=1;fontSize=12;glass=0;strokeWidth=1;shadow=0;" vertex="1" parent="WIyWlLk6GJQsqaUBKTNV-1">
          <mxGeometry x="1165" y="475" width="80" height="30" as="geometry" />
        </mxCell>
        <mxCell id="XLvopbLPkMRgBaN1qyR0-79" value="id" style="ellipse;whiteSpace=wrap;html=1;" vertex="1" parent="WIyWlLk6GJQsqaUBKTNV-1">
          <mxGeometry x="1225" y="350" width="60" height="20" as="geometry" />
        </mxCell>
        <mxCell id="XLvopbLPkMRgBaN1qyR0-80" value="" style="endArrow=none;html=1;entryX=0.5;entryY=1;entryDx=0;entryDy=0;exitX=0.75;exitY=0;exitDx=0;exitDy=0;" edge="1" parent="WIyWlLk6GJQsqaUBKTNV-1" target="XLvopbLPkMRgBaN1qyR0-79" source="XLvopbLPkMRgBaN1qyR0-71">
          <mxGeometry width="50" height="50" relative="1" as="geometry">
            <mxPoint x="1275" y="350" as="sourcePoint" />
            <mxPoint x="1395" y="375" as="targetPoint" />
          </mxGeometry>
        </mxCell>
        <mxCell id="XLvopbLPkMRgBaN1qyR0-81" value="Name" style="ellipse;whiteSpace=wrap;html=1;" vertex="1" parent="WIyWlLk6GJQsqaUBKTNV-1">
          <mxGeometry x="1255" y="370" width="60" height="20" as="geometry" />
        </mxCell>
        <mxCell id="XLvopbLPkMRgBaN1qyR0-82" value="" style="endArrow=none;html=1;entryX=0;entryY=1;entryDx=0;entryDy=0;exitX=1;exitY=0.25;exitDx=0;exitDy=0;" edge="1" parent="WIyWlLk6GJQsqaUBKTNV-1" source="XLvopbLPkMRgBaN1qyR0-71" target="XLvopbLPkMRgBaN1qyR0-81">
          <mxGeometry width="50" height="50" relative="1" as="geometry">
            <mxPoint x="1235" y="395" as="sourcePoint" />
            <mxPoint x="1265" y="380.00000000000006" as="targetPoint" />
          </mxGeometry>
        </mxCell>
        <mxCell id="XLvopbLPkMRgBaN1qyR0-83" value="id" style="ellipse;whiteSpace=wrap;html=1;" vertex="1" parent="WIyWlLk6GJQsqaUBKTNV-1">
          <mxGeometry x="1265" y="415" width="60" height="20" as="geometry" />
        </mxCell>
        <mxCell id="XLvopbLPkMRgBaN1qyR0-84" value="" style="endArrow=none;html=1;entryX=0;entryY=1;entryDx=0;entryDy=0;exitX=1;exitY=0.25;exitDx=0;exitDy=0;" edge="1" parent="WIyWlLk6GJQsqaUBKTNV-1" target="XLvopbLPkMRgBaN1qyR0-83" source="XLvopbLPkMRgBaN1qyR0-72">
          <mxGeometry width="50" height="50" relative="1" as="geometry">
            <mxPoint x="1255" y="445" as="sourcePoint" />
            <mxPoint x="1425" y="435" as="targetPoint" />
          </mxGeometry>
        </mxCell>
        <mxCell id="XLvopbLPkMRgBaN1qyR0-85" value="Name" style="ellipse;whiteSpace=wrap;html=1;" vertex="1" parent="WIyWlLk6GJQsqaUBKTNV-1">
          <mxGeometry x="1265" y="440" width="60" height="20" as="geometry" />
        </mxCell>
        <mxCell id="XLvopbLPkMRgBaN1qyR0-86" value="" style="endArrow=none;html=1;entryX=0;entryY=0.5;entryDx=0;entryDy=0;exitX=1;exitY=0.5;exitDx=0;exitDy=0;" edge="1" parent="WIyWlLk6GJQsqaUBKTNV-1" target="XLvopbLPkMRgBaN1qyR0-85" source="XLvopbLPkMRgBaN1qyR0-72">
          <mxGeometry width="50" height="50" relative="1" as="geometry">
            <mxPoint x="1275" y="452.5" as="sourcePoint" />
            <mxPoint x="1295" y="440.00000000000006" as="targetPoint" />
          </mxGeometry>
        </mxCell>
        <mxCell id="XLvopbLPkMRgBaN1qyR0-88" value="id" style="ellipse;whiteSpace=wrap;html=1;" vertex="1" parent="WIyWlLk6GJQsqaUBKTNV-1">
          <mxGeometry x="1265" y="505" width="60" height="20" as="geometry" />
        </mxCell>
        <mxCell id="XLvopbLPkMRgBaN1qyR0-89" value="" style="endArrow=none;html=1;entryX=0;entryY=0;entryDx=0;entryDy=0;exitX=1;exitY=0.5;exitDx=0;exitDy=0;" edge="1" parent="WIyWlLk6GJQsqaUBKTNV-1" target="XLvopbLPkMRgBaN1qyR0-88" source="XLvopbLPkMRgBaN1qyR0-73">
          <mxGeometry width="50" height="50" relative="1" as="geometry">
            <mxPoint x="1265" y="510" as="sourcePoint" />
            <mxPoint x="1435" y="500" as="targetPoint" />
          </mxGeometry>
        </mxCell>
        <mxCell id="XLvopbLPkMRgBaN1qyR0-90" value="Name" style="ellipse;whiteSpace=wrap;html=1;" vertex="1" parent="WIyWlLk6GJQsqaUBKTNV-1">
          <mxGeometry x="1265" y="475" width="60" height="20" as="geometry" />
        </mxCell>
        <mxCell id="XLvopbLPkMRgBaN1qyR0-91" value="" style="endArrow=none;html=1;entryX=0;entryY=0.5;entryDx=0;entryDy=0;exitX=1;exitY=0.25;exitDx=0;exitDy=0;" edge="1" parent="WIyWlLk6GJQsqaUBKTNV-1" target="XLvopbLPkMRgBaN1qyR0-90" source="XLvopbLPkMRgBaN1qyR0-73">
          <mxGeometry width="50" height="50" relative="1" as="geometry">
            <mxPoint x="1285" y="517.5" as="sourcePoint" />
            <mxPoint x="1305" y="505.00000000000006" as="targetPoint" />
          </mxGeometry>
        </mxCell>
        <mxCell id="XLvopbLPkMRgBaN1qyR0-96" style="edgeStyle=orthogonalEdgeStyle;rounded=0;orthogonalLoop=1;jettySize=auto;html=1;entryX=0;entryY=0.25;entryDx=0;entryDy=0;startArrow=none;startFill=0;endArrow=none;endFill=0;strokeColor=#000000;" edge="1" parent="WIyWlLk6GJQsqaUBKTNV-1" source="XLvopbLPkMRgBaN1qyR0-94" target="XLvopbLPkMRgBaN1qyR0-50">
          <mxGeometry relative="1" as="geometry" />
        </mxCell>
        <mxCell id="XLvopbLPkMRgBaN1qyR0-94" value="view" style="rhombus;whiteSpace=wrap;html=1;shadow=0;fontFamily=Helvetica;fontSize=12;align=center;strokeWidth=1;spacing=6;spacingTop=-4;" vertex="1" parent="WIyWlLk6GJQsqaUBKTNV-1">
          <mxGeometry x="730" y="461.25" width="56.54" height="52.5" as="geometry" />
        </mxCell>
        <mxCell id="XLvopbLPkMRgBaN1qyR0-99" value="belongs" style="rhombus;whiteSpace=wrap;html=1;shadow=0;fontFamily=Helvetica;fontSize=12;align=center;strokeWidth=1;spacing=6;spacingTop=-4;" vertex="1" parent="WIyWlLk6GJQsqaUBKTNV-1">
          <mxGeometry x="984.24" y="412.19" width="68.06" height="60.62" as="geometry" />
        </mxCell>
        <mxCell id="XLvopbLPkMRgBaN1qyR0-105" value="Sub Category 1" style="rounded=0;whiteSpace=wrap;html=1;fontSize=12;glass=0;strokeWidth=1;shadow=0;" vertex="1" parent="WIyWlLk6GJQsqaUBKTNV-1">
          <mxGeometry x="1460" y="322.5" width="80" height="30" as="geometry" />
        </mxCell>
        <mxCell id="XLvopbLPkMRgBaN1qyR0-109" value="Sub Category 2" style="rounded=0;whiteSpace=wrap;html=1;fontSize=12;glass=0;strokeWidth=1;shadow=0;" vertex="1" parent="WIyWlLk6GJQsqaUBKTNV-1">
          <mxGeometry x="1460" y="365" width="80" height="30" as="geometry" />
        </mxCell>
        <mxCell id="XLvopbLPkMRgBaN1qyR0-111" value="Sub Category 3" style="rounded=0;whiteSpace=wrap;html=1;fontSize=12;glass=0;strokeWidth=1;shadow=0;" vertex="1" parent="WIyWlLk6GJQsqaUBKTNV-1">
          <mxGeometry x="1460" y="405" width="80" height="30" as="geometry" />
        </mxCell>
        <mxCell id="XLvopbLPkMRgBaN1qyR0-113" value="Sub Category 4" style="rounded=0;whiteSpace=wrap;html=1;fontSize=12;glass=0;strokeWidth=1;shadow=0;" vertex="1" parent="WIyWlLk6GJQsqaUBKTNV-1">
          <mxGeometry x="1460" y="445" width="80" height="30" as="geometry" />
        </mxCell>
        <mxCell id="XLvopbLPkMRgBaN1qyR0-115" value="id" style="ellipse;whiteSpace=wrap;html=1;" vertex="1" parent="WIyWlLk6GJQsqaUBKTNV-1">
          <mxGeometry x="1530" y="280" width="60" height="20" as="geometry" />
        </mxCell>
        <mxCell id="XLvopbLPkMRgBaN1qyR0-116" value="" style="endArrow=none;html=1;entryX=0.5;entryY=1;entryDx=0;entryDy=0;exitX=0.75;exitY=0;exitDx=0;exitDy=0;" edge="1" parent="WIyWlLk6GJQsqaUBKTNV-1" target="XLvopbLPkMRgBaN1qyR0-115" source="XLvopbLPkMRgBaN1qyR0-105">
          <mxGeometry width="50" height="50" relative="1" as="geometry">
            <mxPoint x="1530" y="315" as="sourcePoint" />
            <mxPoint x="1700" y="305" as="targetPoint" />
          </mxGeometry>
        </mxCell>
        <mxCell id="XLvopbLPkMRgBaN1qyR0-117" value="Name" style="ellipse;whiteSpace=wrap;html=1;" vertex="1" parent="WIyWlLk6GJQsqaUBKTNV-1">
          <mxGeometry x="1560" y="300" width="60" height="20" as="geometry" />
        </mxCell>
        <mxCell id="XLvopbLPkMRgBaN1qyR0-118" value="" style="endArrow=none;html=1;entryX=0;entryY=1;entryDx=0;entryDy=0;exitX=1;exitY=0;exitDx=0;exitDy=0;" edge="1" parent="WIyWlLk6GJQsqaUBKTNV-1" target="XLvopbLPkMRgBaN1qyR0-117" source="XLvopbLPkMRgBaN1qyR0-105">
          <mxGeometry width="50" height="50" relative="1" as="geometry">
            <mxPoint x="1550" y="322.5" as="sourcePoint" />
            <mxPoint x="1570" y="310.00000000000006" as="targetPoint" />
          </mxGeometry>
        </mxCell>
        <mxCell id="XLvopbLPkMRgBaN1qyR0-119" value="id" style="ellipse;whiteSpace=wrap;html=1;" vertex="1" parent="WIyWlLk6GJQsqaUBKTNV-1">
          <mxGeometry x="1545" y="340" width="60" height="20" as="geometry" />
        </mxCell>
        <mxCell id="XLvopbLPkMRgBaN1qyR0-120" value="" style="endArrow=none;html=1;entryX=0.5;entryY=1;entryDx=0;entryDy=0;exitX=1;exitY=0.25;exitDx=0;exitDy=0;" edge="1" parent="WIyWlLk6GJQsqaUBKTNV-1" target="XLvopbLPkMRgBaN1qyR0-119" source="XLvopbLPkMRgBaN1qyR0-109">
          <mxGeometry width="50" height="50" relative="1" as="geometry">
            <mxPoint x="1545" y="375" as="sourcePoint" />
            <mxPoint x="1715" y="365" as="targetPoint" />
          </mxGeometry>
        </mxCell>
        <mxCell id="XLvopbLPkMRgBaN1qyR0-121" value="Name" style="ellipse;whiteSpace=wrap;html=1;" vertex="1" parent="WIyWlLk6GJQsqaUBKTNV-1">
          <mxGeometry x="1575" y="360" width="60" height="20" as="geometry" />
        </mxCell>
        <mxCell id="XLvopbLPkMRgBaN1qyR0-122" value="" style="endArrow=none;html=1;entryX=0;entryY=1;entryDx=0;entryDy=0;exitX=1;exitY=0.5;exitDx=0;exitDy=0;" edge="1" parent="WIyWlLk6GJQsqaUBKTNV-1" target="XLvopbLPkMRgBaN1qyR0-121" source="XLvopbLPkMRgBaN1qyR0-109">
          <mxGeometry width="50" height="50" relative="1" as="geometry">
            <mxPoint x="1550" y="382.5" as="sourcePoint" />
            <mxPoint x="1585" y="370.00000000000006" as="targetPoint" />
          </mxGeometry>
        </mxCell>
        <mxCell id="XLvopbLPkMRgBaN1qyR0-131" value="id" style="ellipse;whiteSpace=wrap;html=1;" vertex="1" parent="WIyWlLk6GJQsqaUBKTNV-1">
          <mxGeometry x="1560" y="395" width="60" height="20" as="geometry" />
        </mxCell>
        <mxCell id="XLvopbLPkMRgBaN1qyR0-132" value="" style="endArrow=none;html=1;entryX=0;entryY=1;entryDx=0;entryDy=0;exitX=1;exitY=0.5;exitDx=0;exitDy=0;" edge="1" parent="WIyWlLk6GJQsqaUBKTNV-1" target="XLvopbLPkMRgBaN1qyR0-131" source="XLvopbLPkMRgBaN1qyR0-111">
          <mxGeometry width="50" height="50" relative="1" as="geometry">
            <mxPoint x="1545" y="427.5" as="sourcePoint" />
            <mxPoint x="1715" y="417.5" as="targetPoint" />
          </mxGeometry>
        </mxCell>
        <mxCell id="XLvopbLPkMRgBaN1qyR0-133" value="Name" style="ellipse;whiteSpace=wrap;html=1;" vertex="1" parent="WIyWlLk6GJQsqaUBKTNV-1">
          <mxGeometry x="1575" y="420" width="60" height="20" as="geometry" />
        </mxCell>
        <mxCell id="XLvopbLPkMRgBaN1qyR0-134" value="" style="endArrow=none;html=1;entryX=0;entryY=0.5;entryDx=0;entryDy=0;exitX=1;exitY=0.75;exitDx=0;exitDy=0;" edge="1" parent="WIyWlLk6GJQsqaUBKTNV-1" target="XLvopbLPkMRgBaN1qyR0-133" source="XLvopbLPkMRgBaN1qyR0-111">
          <mxGeometry width="50" height="50" relative="1" as="geometry">
            <mxPoint x="1565" y="435" as="sourcePoint" />
            <mxPoint x="1585" y="422.50000000000006" as="targetPoint" />
          </mxGeometry>
        </mxCell>
        <mxCell id="XLvopbLPkMRgBaN1qyR0-135" value="id" style="ellipse;whiteSpace=wrap;html=1;" vertex="1" parent="WIyWlLk6GJQsqaUBKTNV-1">
          <mxGeometry x="1560" y="468.75" width="60" height="20" as="geometry" />
        </mxCell>
        <mxCell id="XLvopbLPkMRgBaN1qyR0-136" value="" style="endArrow=none;html=1;entryX=0;entryY=0;entryDx=0;entryDy=0;exitX=1;exitY=0.75;exitDx=0;exitDy=0;" edge="1" parent="WIyWlLk6GJQsqaUBKTNV-1" target="XLvopbLPkMRgBaN1qyR0-135" source="XLvopbLPkMRgBaN1qyR0-113">
          <mxGeometry width="50" height="50" relative="1" as="geometry">
            <mxPoint x="1545" y="495" as="sourcePoint" />
            <mxPoint x="1715" y="485" as="targetPoint" />
          </mxGeometry>
        </mxCell>
        <mxCell id="XLvopbLPkMRgBaN1qyR0-137" value="Name" style="ellipse;whiteSpace=wrap;html=1;" vertex="1" parent="WIyWlLk6GJQsqaUBKTNV-1">
          <mxGeometry x="1545" y="492.5" width="60" height="20" as="geometry" />
        </mxCell>
        <mxCell id="XLvopbLPkMRgBaN1qyR0-138" value="" style="endArrow=none;html=1;entryX=0;entryY=0;entryDx=0;entryDy=0;exitX=1;exitY=1;exitDx=0;exitDy=0;" edge="1" parent="WIyWlLk6GJQsqaUBKTNV-1" target="XLvopbLPkMRgBaN1qyR0-137" source="XLvopbLPkMRgBaN1qyR0-113">
          <mxGeometry width="50" height="50" relative="1" as="geometry">
            <mxPoint x="1565" y="502.5" as="sourcePoint" />
            <mxPoint x="1585" y="490.00000000000006" as="targetPoint" />
          </mxGeometry>
        </mxCell>
        <mxCell id="XLvopbLPkMRgBaN1qyR0-140" value="Tags" style="rounded=0;whiteSpace=wrap;html=1;fontSize=12;glass=0;strokeWidth=1;shadow=0;" vertex="1" parent="WIyWlLk6GJQsqaUBKTNV-1">
          <mxGeometry x="885" y="532.5" width="60" height="25" as="geometry" />
        </mxCell>
        <mxCell id="XLvopbLPkMRgBaN1qyR0-141" value="id" style="ellipse;whiteSpace=wrap;html=1;" vertex="1" parent="WIyWlLk6GJQsqaUBKTNV-1">
          <mxGeometry x="850" y="567.5" width="60" height="20" as="geometry" />
        </mxCell>
        <mxCell id="XLvopbLPkMRgBaN1qyR0-142" value="" style="endArrow=none;html=1;entryX=0.5;entryY=0;entryDx=0;entryDy=0;exitX=0.25;exitY=1;exitDx=0;exitDy=0;" edge="1" parent="WIyWlLk6GJQsqaUBKTNV-1" source="XLvopbLPkMRgBaN1qyR0-140" target="XLvopbLPkMRgBaN1qyR0-141">
          <mxGeometry width="50" height="50" relative="1" as="geometry">
            <mxPoint x="1265" y="552.5" as="sourcePoint" />
            <mxPoint x="1435" y="542.5" as="targetPoint" />
          </mxGeometry>
        </mxCell>
        <mxCell id="XLvopbLPkMRgBaN1qyR0-143" value="Name" style="ellipse;whiteSpace=wrap;html=1;" vertex="1" parent="WIyWlLk6GJQsqaUBKTNV-1">
          <mxGeometry x="913.27" y="567.5" width="60" height="20" as="geometry" />
        </mxCell>
        <mxCell id="XLvopbLPkMRgBaN1qyR0-144" value="" style="endArrow=none;html=1;entryX=0.5;entryY=0;entryDx=0;entryDy=0;exitX=0.75;exitY=1;exitDx=0;exitDy=0;" edge="1" parent="WIyWlLk6GJQsqaUBKTNV-1" source="XLvopbLPkMRgBaN1qyR0-140" target="XLvopbLPkMRgBaN1qyR0-143">
          <mxGeometry width="50" height="50" relative="1" as="geometry">
            <mxPoint x="1285" y="560" as="sourcePoint" />
            <mxPoint x="1305" y="547.5" as="targetPoint" />
          </mxGeometry>
        </mxCell>
        <mxCell id="XLvopbLPkMRgBaN1qyR0-148" style="edgeStyle=orthogonalEdgeStyle;rounded=0;orthogonalLoop=1;jettySize=auto;html=1;exitX=0.5;exitY=0;exitDx=0;exitDy=0;entryX=0.5;entryY=1;entryDx=0;entryDy=0;startArrow=none;startFill=0;endArrow=none;endFill=0;strokeColor=#000000;" edge="1" parent="WIyWlLk6GJQsqaUBKTNV-1" source="XLvopbLPkMRgBaN1qyR0-147" target="XLvopbLPkMRgBaN1qyR0-50">
          <mxGeometry relative="1" as="geometry" />
        </mxCell>
        <mxCell id="XLvopbLPkMRgBaN1qyR0-149" style="edgeStyle=orthogonalEdgeStyle;rounded=0;orthogonalLoop=1;jettySize=auto;html=1;exitX=0.5;exitY=1;exitDx=0;exitDy=0;entryX=0.5;entryY=0;entryDx=0;entryDy=0;startArrow=none;startFill=0;endArrow=none;endFill=0;strokeColor=#000000;" edge="1" parent="WIyWlLk6GJQsqaUBKTNV-1" source="XLvopbLPkMRgBaN1qyR0-147" target="XLvopbLPkMRgBaN1qyR0-140">
          <mxGeometry relative="1" as="geometry" />
        </mxCell>
        <mxCell id="XLvopbLPkMRgBaN1qyR0-147" value="has" style="rhombus;whiteSpace=wrap;html=1;shadow=0;fontFamily=Helvetica;fontSize=12;align=center;strokeWidth=1;spacing=6;spacingTop=-4;" vertex="1" parent="WIyWlLk6GJQsqaUBKTNV-1">
          <mxGeometry x="896.32" y="472.81" width="37.36" height="34.69" as="geometry" />
        </mxCell>
        <mxCell id="XLvopbLPkMRgBaN1qyR0-154" style="edgeStyle=orthogonalEdgeStyle;rounded=0;orthogonalLoop=1;jettySize=auto;html=1;exitX=1;exitY=0.5;exitDx=0;exitDy=0;entryX=0.5;entryY=0;entryDx=0;entryDy=0;startArrow=none;startFill=0;endArrow=none;endFill=0;strokeColor=#000000;" edge="1" parent="WIyWlLk6GJQsqaUBKTNV-1" source="XLvopbLPkMRgBaN1qyR0-151" target="XLvopbLPkMRgBaN1qyR0-51">
          <mxGeometry relative="1" as="geometry" />
        </mxCell>
        <mxCell id="XLvopbLPkMRgBaN1qyR0-151" value="add to" style="rhombus;whiteSpace=wrap;html=1;shadow=0;fontFamily=Helvetica;fontSize=12;align=center;strokeWidth=1;spacing=6;spacingTop=-4;" vertex="1" parent="WIyWlLk6GJQsqaUBKTNV-1">
          <mxGeometry x="1063.27" y="513.75" width="47.12" height="43.75" as="geometry" />
        </mxCell>
        <mxCell id="XLvopbLPkMRgBaN1qyR0-155" value="Payment" style="rounded=0;whiteSpace=wrap;html=1;fontSize=12;glass=0;strokeWidth=1;shadow=0;" vertex="1" parent="WIyWlLk6GJQsqaUBKTNV-1">
          <mxGeometry x="860" y="762.5" width="80" height="30" as="geometry" />
        </mxCell>
      </root>
    </mxGraphModel>
  </diagram>
</mxfile>
